<svg id="visual" viewBox="0 0 900 300" width="900" height="300" xmlns="http://www.w3.org/2000/svg" xmlns:xlink="http://www.w3.org/1999/xlink" version="1.1"><rect x="0" y="0" width="900" height="300" fill="#001122"></rect><defs><linearGradient id="grad1_0" x1="66.7%" y1="0%" x2="100%" y2="100%"><stop offset="-10%" stop-color="#f7770f" stop-opacity="1"></stop><stop offset="110%" stop-color="#f7770f" stop-opacity="1"></stop></linearGradient></defs><defs><linearGradient id="grad1_1" x1="66.7%" y1="0%" x2="100%" y2="100%"><stop offset="-10%" stop-color="#f7770f" stop-opacity="1"></stop><stop offset="110%" stop-color="#ea503e" stop-opacity="1"></stop></linearGradient></defs><defs><linearGradient id="grad1_2" x1="66.7%" y1="0%" x2="100%" y2="100%"><stop offset="-10%" stop-color="#cc3558" stop-opacity="1"></stop><stop offset="110%" stop-color="#ea503e" stop-opacity="1"></stop></linearGradient></defs><defs><linearGradient id="grad1_3" x1="66.7%" y1="0%" x2="100%" y2="100%"><stop offset="-10%" stop-color="#cc3558" stop-opacity="1"></stop><stop offset="110%" stop-color="#a22d65" stop-opacity="1"></stop></linearGradient></defs><defs><linearGradient id="grad1_4" x1="66.7%" y1="0%" x2="100%" y2="100%"><stop offset="-10%" stop-color="#712c66" stop-opacity="1"></stop><stop offset="110%" stop-color="#a22d65" stop-opacity="1"></stop></linearGradient></defs><defs><linearGradient id="grad1_5" x1="66.7%" y1="0%" x2="100%" y2="100%"><stop offset="-10%" stop-color="#712c66" stop-opacity="1"></stop><stop offset="110%" stop-color="#412958" stop-opacity="1"></stop></linearGradient></defs><defs><linearGradient id="grad1_6" x1="66.7%" y1="0%" x2="100%" y2="100%"><stop offset="-10%" stop-color="#192040" stop-opacity="1"></stop><stop offset="110%" stop-color="#412958" stop-opacity="1"></stop></linearGradient></defs><defs><linearGradient id="grad1_7" x1="66.7%" y1="0%" x2="100%" y2="100%"><stop offset="-10%" stop-color="#192040" stop-opacity="1"></stop><stop offset="110%" stop-color="#001122" stop-opacity="1"></stop></linearGradient></defs><defs><linearGradient id="grad2_0" x1="0%" y1="0%" x2="33.3%" y2="100%"><stop offset="-10%" stop-color="#f7770f" stop-opacity="1"></stop><stop offset="110%" stop-color="#f7770f" stop-opacity="1"></stop></linearGradient></defs><defs><linearGradient id="grad2_1" x1="0%" y1="0%" x2="33.3%" y2="100%"><stop offset="-10%" stop-color="#ea503e" stop-opacity="1"></stop><stop offset="110%" stop-color="#f7770f" stop-opacity="1"></stop></linearGradient></defs><defs><linearGradient id="grad2_2" x1="0%" y1="0%" x2="33.3%" y2="100%"><stop offset="-10%" stop-color="#ea503e" stop-opacity="1"></stop><stop offset="110%" stop-color="#cc3558" stop-opacity="1"></stop></linearGradient></defs><defs><linearGradient id="grad2_3" x1="0%" y1="0%" x2="33.3%" y2="100%"><stop offset="-10%" stop-color="#a22d65" stop-opacity="1"></stop><stop offset="110%" stop-color="#cc3558" stop-opacity="1"></stop></linearGradient></defs><defs><linearGradient id="grad2_4" x1="0%" y1="0%" x2="33.3%" y2="100%"><stop offset="-10%" stop-color="#a22d65" stop-opacity="1"></stop><stop offset="110%" stop-color="#712c66" stop-opacity="1"></stop></linearGradient></defs><defs><linearGradient id="grad2_5" x1="0%" y1="0%" x2="33.3%" y2="100%"><stop offset="-10%" stop-color="#412958" stop-opacity="1"></stop><stop offset="110%" stop-color="#712c66" stop-opacity="1"></stop></linearGradient></defs><defs><linearGradient id="grad2_6" x1="0%" y1="0%" x2="33.3%" y2="100%"><stop offset="-10%" stop-color="#412958" stop-opacity="1"></stop><stop offset="110%" stop-color="#192040" stop-opacity="1"></stop></linearGradient></defs><defs><linearGradient id="grad2_7" x1="0%" y1="0%" x2="33.3%" y2="100%"><stop offset="-10%" stop-color="#001122" stop-opacity="1"></stop><stop offset="110%" stop-color="#192040" stop-opacity="1"></stop></linearGradient></defs><g transform="translate(900, 0)"><path d="M0 197C-39.6 244 -79.2 291 -88.7 273C-98.2 254.9 -77.6 171.9 -112.9 155.3C-148.1 138.7 -239.1 188.5 -242.7 176.3C-246.3 164.2 -162.5 90.1 -155 50.4C-147.5 10.7 -216.3 5.3 -285 0L0 0Z" fill="#091931"></path><path d="M0 172.4C-34.6 213.5 -69.3 254.6 -77.6 238.8C-85.9 223.1 -67.9 150.5 -98.7 135.9C-129.6 121.4 -209.2 164.9 -212.4 154.3C-215.5 143.7 -142.2 78.8 -135.6 44.1C-129.1 9.3 -189.2 4.7 -249.4 0L0 0Z" fill="#2c254d"></path><path d="M0 147.8C-29.7 183 -59.4 218.2 -66.5 204.7C-73.6 191.2 -58.2 129 -84.6 116.5C-111.1 104 -179.3 141.4 -182 132.3C-184.7 123.1 -121.9 67.6 -116.3 37.8C-110.6 8 -162.2 4 -213.7 0L0 0Z" fill="#592b61"></path><path d="M0 123.1C-24.7 152.5 -49.5 181.9 -55.4 170.6C-61.4 159.3 -48.5 107.5 -70.5 97.1C-92.5 86.7 -149.4 117.8 -151.7 110.2C-154 102.6 -101.6 56.3 -96.9 31.5C-92.2 6.7 -135.2 3.3 -178.1 0L0 0Z" fill="#8a2c67"></path><path d="M0 98.5C-19.8 122 -39.6 145.5 -44.3 136.5C-49.1 127.5 -38.8 86 -56.4 77.7C-74 69.4 -119.5 94.2 -121.4 88.2C-123.2 82.1 -81.3 45 -77.5 25.2C-73.8 5.3 -108.1 2.7 -142.5 0L0 0Z" fill="#b82f60"></path><path d="M0 73.9C-14.8 91.5 -29.7 109.1 -33.3 102.4C-36.8 95.6 -29.1 64.5 -42.3 58.2C-55.5 52 -89.7 70.7 -91 66.1C-92.4 61.6 -61 33.8 -58.1 18.9C-55.3 4 -81.1 2 -106.9 0L0 0Z" fill="#dd414c"></path><path d="M0 49.3C-9.9 61 -19.8 72.7 -22.2 68.2C-24.5 63.7 -19.4 43 -28.2 38.8C-37 34.7 -59.8 47.1 -60.7 44.1C-61.6 41 -40.6 22.5 -38.8 12.6C-36.9 2.7 -54.1 1.3 -71.2 0L0 0Z" fill="#f3632c"></path><path d="M0 24.6C-4.9 30.5 -9.9 36.4 -11.1 34.1C-12.3 31.9 -9.7 21.5 -14.1 19.4C-18.5 17.3 -29.9 23.6 -30.3 22C-30.8 20.5 -20.3 11.3 -19.4 6.3C-18.4 1.3 -27 0.7 -35.6 0L0 0Z" fill="#f7770f"></path></g><g transform="translate(0, 300)"><path d="M0 -159C25.9 -181.3 51.8 -203.5 64 -196.9C76.2 -190.2 74.6 -154.6 111.7 -153.7C148.7 -152.8 224.3 -186.6 241.1 -175.2C257.9 -163.7 215.9 -106.9 215.9 -70.1C215.9 -33.4 258 -16.7 300 0L0 0Z" fill="#091931"></path><path d="M0 -139.1C22.7 -158.6 45.3 -178.1 56 -172.3C66.6 -166.4 65.3 -135.3 97.7 -134.5C130.1 -133.7 196.3 -163.3 211 -153.3C225.6 -143.2 188.9 -93.5 188.9 -61.4C188.9 -29.2 225.7 -14.6 262.5 0L0 0Z" fill="#2c254d"></path><path d="M0 -119.2C19.4 -136 38.8 -152.7 48 -147.7C57.1 -142.7 56 -116 83.8 -115.3C111.5 -114.6 168.2 -140 180.8 -131.4C193.4 -122.8 161.9 -80.2 161.9 -52.6C161.9 -25.1 193.5 -12.5 225 0L0 0Z" fill="#592b61"></path><path d="M0 -99.4C16.2 -113.3 32.4 -127.2 40 -123C47.6 -118.9 46.7 -96.6 69.8 -96.1C92.9 -95.5 140.2 -116.7 150.7 -109.5C161.2 -102.3 134.9 -66.8 134.9 -43.8C134.9 -20.9 161.2 -10.4 187.5 0L0 0Z" fill="#8a2c67"></path><path d="M0 -79.5C12.9 -90.6 25.9 -101.8 32 -98.4C38.1 -95.1 37.3 -77.3 55.8 -76.9C74.4 -76.4 112.1 -93.3 120.5 -87.6C128.9 -81.8 107.9 -53.4 107.9 -35.1C108 -16.7 129 -8.4 150 0L0 0Z" fill="#b82f60"></path><path d="M0 -59.6C9.7 -68 19.4 -76.3 24 -73.8C28.6 -71.3 28 -58 41.9 -57.6C55.8 -57.3 84.1 -70 90.4 -65.7C96.7 -61.4 81 -40.1 81 -26.3C81 -12.5 96.7 -6.3 112.5 0L0 0Z" fill="#dd414c"></path><path d="M0 -39.7C6.5 -45.3 12.9 -50.9 16 -49.2C19 -47.6 18.7 -38.7 27.9 -38.4C37.2 -38.2 56.1 -46.7 60.3 -43.8C64.5 -40.9 54 -26.7 54 -17.5C54 -8.4 64.5 -4.2 75 0L0 0Z" fill="#f3632c"></path><path d="M0 -19.9C3.2 -22.7 6.5 -25.4 8 -24.6C9.5 -23.8 9.3 -19.3 14 -19.2C18.6 -19.1 28 -23.3 30.1 -21.9C32.2 -20.5 27 -13.4 27 -8.8C27 -4.2 32.2 -2.1 37.5 0L0 0Z" fill="#f7770f"></path></g></svg>