<svg id="visual" viewBox="0 0 900 300" width="900" height="300" xmlns="http://www.w3.org/2000/svg" xmlns:xlink="http://www.w3.org/1999/xlink" version="1.1"><rect width="900" height="300" fill="#001122"></rect><g><g transform="translate(265 55)"><path d="M7.6 -9.2C9.6 -7.4 10.8 -4.7 11.3 -2C11.8 0.8 11.5 3.6 10.3 6.1C9.1 8.6 6.9 10.8 4.3 11.7C1.6 12.7 -1.4 12.4 -4.1 11.4C-6.9 10.4 -9.3 8.6 -10.7 6.1C-12.2 3.7 -12.7 0.7 -12.1 -2.1C-11.5 -4.8 -9.9 -7.3 -7.7 -9.1C-5.5 -11 -2.8 -12.1 0 -12.1C2.8 -12.2 5.6 -11.1 7.6 -9.2Z" fill="#383e44"></path></g><g transform="translate(770 115)"><path d="M4.5 -5.5C5.7 -4.4 6.5 -2.8 6.8 -1.2C7 0.4 6.7 2 5.9 3.4C5.1 4.7 3.8 5.8 2.3 6.3C0.8 6.9 -0.9 6.9 -2.3 6.4C-3.8 5.8 -5 4.7 -5.8 3.4C-6.5 2 -6.8 0.4 -6.5 -1.1C-6.2 -2.6 -5.4 -4 -4.2 -5.2C-3 -6.3 -1.5 -7.1 0.1 -7.2C1.6 -7.3 3.3 -6.6 4.5 -5.5Z" fill="#383e44"></path></g><g transform="translate(568 219)"><path d="M6.4 -7.5C8.1 -6.1 9.3 -4 9.7 -1.7C10 0.5 9.5 2.8 8.3 4.7C7.1 6.5 5.2 7.9 3.1 8.6C1.1 9.4 -1.2 9.5 -3.2 8.8C-5.2 8.1 -6.9 6.5 -7.9 4.6C-8.9 2.7 -9.2 0.5 -8.9 -1.7C-8.7 -3.9 -7.8 -6.1 -6.2 -7.5C-4.6 -9 -2.3 -9.8 0 -9.7C2.3 -9.7 4.6 -9 6.4 -7.5Z" fill="#383e44"></path></g><g transform="translate(804 274)"><path d="M5.1 -6.1C6.5 -4.9 7.6 -3.2 7.8 -1.4C8.1 0.3 7.5 2.2 6.6 3.8C5.6 5.4 4.3 6.8 2.7 7.5C1.1 8.1 -0.9 8 -2.6 7.3C-4.3 6.6 -5.7 5.3 -6.6 3.8C-7.6 2.2 -8 0.4 -7.7 -1.3C-7.4 -3 -6.3 -4.6 -4.8 -5.8C-3.4 -7.1 -1.7 -8 0.1 -8.1C1.8 -8.1 3.6 -7.3 5.1 -6.1Z" fill="#383e44"></path></g><g transform="translate(661 79)"><path d="M5.1 -6.1C6.6 -4.9 7.7 -3.2 8 -1.4C8.3 0.4 7.8 2.3 6.8 3.9C5.8 5.4 4.3 6.6 2.7 7.2C1 7.8 -0.9 7.7 -2.6 7.1C-4.4 6.5 -6 5.4 -6.9 3.9C-7.9 2.4 -8.3 0.4 -7.9 -1.3C-7.4 -3 -6.3 -4.5 -4.8 -5.7C-3.4 -6.9 -1.7 -7.7 0.1 -7.8C1.8 -7.9 3.7 -7.2 5.1 -6.1Z" fill="#383e44"></path></g><g transform="translate(132 206)"><path d="M4.8 -5.6C6.2 -4.5 7.4 -3 7.8 -1.3C8.2 0.4 7.8 2.3 6.8 3.9C5.9 5.5 4.4 6.7 2.7 7.3C1 7.9 -1 7.9 -2.7 7.3C-4.4 6.7 -6 5.6 -6.9 4C-7.8 2.4 -8.1 0.5 -7.7 -1.4C-7.4 -3.3 -6.6 -5.1 -5.2 -6.2C-3.8 -7.3 -1.9 -7.7 -0.1 -7.6C1.7 -7.5 3.4 -6.8 4.8 -5.6Z" fill="#383e44"></path></g><g transform="translate(338 268)"><path d="M4.1 -4.8C5.2 -3.9 6 -2.6 6.2 -1.1C6.4 0.3 6.1 1.8 5.3 3.1C4.6 4.3 3.4 5.3 2.1 5.9C0.7 6.4 -0.8 6.5 -2.2 6C-3.5 5.5 -4.6 4.4 -5.2 3.1C-5.9 1.8 -6.1 0.4 -5.8 -1C-5.6 -2.5 -5 -3.8 -3.9 -4.7C-2.9 -5.5 -1.4 -5.9 0 -5.9C1.5 -5.9 3 -5.6 4.1 -4.8Z" fill="#383e44"></path></g><g transform="translate(209 285)"><path d="M4.1 -4.9C5.2 -4 6 -2.6 6.2 -1.1C6.4 0.3 6.1 1.8 5.4 3.1C4.6 4.3 3.5 5.3 2.1 5.8C0.7 6.3 -0.8 6.3 -2.1 5.8C-3.5 5.3 -4.6 4.3 -5.3 3.1C-5.9 1.9 -6 0.4 -5.8 -1C-5.5 -2.4 -4.9 -3.8 -3.9 -4.7C-2.9 -5.7 -1.4 -6.2 0 -6.3C1.5 -6.3 3 -5.8 4.1 -4.9Z" fill="#383e44"></path></g><g transform="translate(646 105)"><path d="M6 -7.3C7.6 -5.8 8.7 -3.8 9 -1.7C9.3 0.5 8.8 2.6 7.8 4.5C6.7 6.4 5.1 7.9 3.1 8.8C1.1 9.7 -1.3 9.9 -3.4 9.2C-5.5 8.5 -7.3 6.9 -8.3 4.9C-9.4 2.9 -9.6 0.6 -9.2 -1.6C-8.8 -3.8 -7.7 -5.9 -6.1 -7.4C-4.5 -8.9 -2.2 -9.8 0 -9.8C2.2 -9.7 4.4 -8.8 6 -7.3Z" fill="#383e44"></path></g><g transform="translate(57 108)"><path d="M5.9 -7.2C7.5 -5.7 8.5 -3.7 8.9 -1.6C9.2 0.5 8.8 2.7 7.8 4.5C6.7 6.3 5 7.7 3.1 8.4C1.1 9.1 -1.1 9.1 -3.2 8.5C-5.3 7.8 -7.2 6.5 -8.4 4.7C-9.7 2.9 -10.2 0.5 -9.8 -1.7C-9.3 -3.8 -7.9 -5.8 -6.1 -7.2C-4.3 -8.6 -2.2 -9.5 0 -9.5C2.2 -9.5 4.3 -8.6 5.9 -7.2Z" fill="#383e44"></path></g><g transform="translate(511 180)"><path d="M6.7 -8C8.5 -6.5 9.6 -4.2 10.1 -1.7C10.6 0.7 10.4 3.3 9.3 5.5C8.1 7.6 6.1 9.4 3.7 10.2C1.4 11.1 -1.3 11.1 -3.7 10.2C-6.1 9.3 -8.2 7.6 -9.3 5.5C-10.4 3.3 -10.4 0.7 -9.9 -1.6C-9.4 -4 -8.2 -6.2 -6.4 -7.8C-4.7 -9.4 -2.3 -10.4 0 -10.5C2.4 -10.5 4.9 -9.6 6.7 -8Z" fill="#383e44"></path></g><g transform="translate(111 71)"><path d="M7 -8.4C8.9 -6.7 10.2 -4.4 10.5 -2C10.7 0.4 10 2.9 8.7 4.9C7.4 7 5.6 8.6 3.3 9.6C1.1 10.6 -1.5 10.9 -3.7 10.2C-6 9.4 -7.9 7.5 -8.9 5.3C-10 3.1 -10.3 0.6 -9.8 -1.7C-9.3 -3.9 -8 -6 -6.3 -7.7C-4.5 -9.4 -2.3 -10.6 0.1 -10.8C2.5 -11 5.1 -10 7 -8.4Z" fill="#383e44"></path></g><g transform="translate(432 111)"><path d="M4.8 -5.7C6.2 -4.6 7.2 -3 7.5 -1.3C7.8 0.4 7.5 2.3 6.6 3.8C5.7 5.2 4.2 6.3 2.5 7C0.8 7.6 -1.1 7.9 -2.7 7.3C-4.3 6.8 -5.7 5.4 -6.6 3.9C-7.4 2.3 -7.6 0.5 -7.3 -1.3C-7 -3.1 -6.2 -4.8 -4.9 -5.9C-3.6 -7 -1.8 -7.4 0 -7.4C1.7 -7.3 3.5 -6.8 4.8 -5.7Z" fill="#383e44"></path></g><g transform="translate(645 292)"><path d="M3.7 -4.5C4.7 -3.6 5.4 -2.3 5.7 -0.9C6.1 0.5 6.1 2 5.4 3.2C4.8 4.3 3.5 5.2 2.1 5.6C0.7 6 -0.7 6.1 -2 5.6C-3.3 5.1 -4.4 4.1 -5.2 2.9C-5.9 1.7 -6.3 0.3 -6.1 -1.1C-5.9 -2.4 -5 -3.7 -3.9 -4.5C-2.7 -5.3 -1.4 -5.8 0 -5.8C1.4 -5.8 2.7 -5.3 3.7 -4.5Z" fill="#383e44"></path></g><g transform="translate(509 213)"><path d="M4.1 -4.7C5.2 -3.9 6 -2.5 6.2 -1.1C6.4 0.3 6.1 1.8 5.4 3.1C4.6 4.3 3.4 5.2 2.1 5.8C0.7 6.3 -0.8 6.4 -2.1 5.9C-3.4 5.3 -4.4 4.2 -5.1 2.9C-5.8 1.7 -6.3 0.2 -6.1 -1.1C-5.9 -2.5 -5 -3.7 -3.9 -4.6C-2.8 -5.4 -1.4 -5.8 0 -5.8C1.5 -5.8 2.9 -5.5 4.1 -4.7Z" fill="#383e44"></path></g><g transform="translate(23 173)"><path d="M4.4 -5.2C5.6 -4.2 6.5 -2.7 6.7 -1.2C7 0.3 6.6 2 5.8 3.3C5 4.7 3.8 5.8 2.3 6.4C0.8 6.9 -0.8 6.9 -2.3 6.4C-3.9 5.8 -5.2 4.8 -6 3.5C-6.8 2.1 -7 0.4 -6.7 -1.1C-6.3 -2.7 -5.5 -4.1 -4.3 -5.1C-3.1 -6.1 -1.5 -6.6 0 -6.7C1.6 -6.7 3.2 -6.2 4.4 -5.2Z" fill="#383e44"></path></g><g transform="translate(619 280)"><path d="M5.7 -6.9C7.1 -5.6 7.9 -3.6 8.2 -1.5C8.5 0.6 8.4 2.7 7.5 4.3C6.6 6 4.8 7.2 2.9 8C0.9 8.7 -1.2 9 -3.1 8.4C-4.9 7.7 -6.4 6.1 -7.2 4.3C-8.1 2.5 -8.4 0.5 -8 -1.4C-7.7 -3.3 -6.8 -5.1 -5.3 -6.4C-3.9 -7.7 -1.9 -8.4 0.1 -8.5C2.1 -8.6 4.3 -8.1 5.7 -6.9Z" fill="#383e44"></path></g><g transform="translate(487 7)"><path d="M6.2 -7.3C7.9 -6 9.2 -3.9 9.5 -1.7C9.9 0.5 9.4 2.8 8.3 4.7C7.1 6.5 5.2 7.9 3.1 8.8C1 9.6 -1.4 9.9 -3.3 9.2C-5.3 8.4 -6.8 6.6 -8 4.6C-9.1 2.6 -9.9 0.4 -9.6 -1.7C-9.2 -3.8 -7.8 -5.7 -6 -7C-4.2 -8.4 -2.1 -9.2 0.1 -9.3C2.2 -9.4 4.5 -8.7 6.2 -7.3Z" fill="#383e44"></path></g><g transform="translate(653 158)"><path d="M5 -6C6.3 -4.8 7.2 -3.1 7.5 -1.4C7.8 0.4 7.4 2.2 6.5 3.8C5.6 5.4 4.3 6.7 2.6 7.3C1 8 -1 8 -2.7 7.4C-4.4 6.7 -5.8 5.5 -6.8 3.9C-7.7 2.3 -8.2 0.4 -7.9 -1.3C-7.5 -3 -6.3 -4.6 -4.8 -5.8C-3.4 -7 -1.7 -7.8 0 -7.9C1.8 -8 3.6 -7.2 5 -6Z" fill="#383e44"></path></g><g transform="translate(162 231)"><path d="M5 -6C6.3 -4.8 7.2 -3.1 7.6 -1.3C7.9 0.6 7.9 2.5 7 4C6.1 5.6 4.5 6.6 2.7 7.2C0.9 7.8 -1 7.9 -2.7 7.3C-4.4 6.8 -5.8 5.5 -6.6 3.9C-7.4 2.3 -7.6 0.5 -7.3 -1.3C-7 -3 -6.1 -4.7 -4.8 -5.9C-3.5 -7 -1.8 -7.8 0 -7.8C1.8 -7.8 3.6 -7.2 5 -6Z" fill="#383e44"></path></g><g transform="translate(679 12)"><path d="M3.9 -4.6C4.9 -3.8 5.5 -2.4 5.7 -1.1C5.9 0.3 5.6 1.7 5 2.9C4.3 4.2 3.3 5.3 2.1 5.8C0.8 6.3 -0.7 6.3 -2.1 5.8C-3.5 5.3 -4.8 4.4 -5.4 3.2C-6.1 1.9 -6.1 0.4 -5.9 -1C-5.6 -2.4 -4.9 -3.7 -3.9 -4.6C-2.8 -5.5 -1.4 -5.9 0 -5.9C1.4 -5.9 2.8 -5.5 3.9 -4.6Z" fill="#383e44"></path></g><g transform="translate(264 208)"><path d="M4.5 -5.3C5.7 -4.3 6.6 -2.8 7 -1.2C7.3 0.4 7 2.2 6.2 3.6C5.4 5 4 6 2.4 6.5C0.9 7 -0.8 7 -2.3 6.4C-3.9 5.8 -5.2 4.8 -5.9 3.5C-6.7 2.1 -6.8 0.4 -6.6 -1.2C-6.3 -2.9 -5.7 -4.5 -4.6 -5.5C-3.4 -6.5 -1.7 -7 0 -6.9C1.6 -6.8 3.2 -6.3 4.5 -5.3Z" fill="#383e44"></path></g><g transform="translate(281 151)"><path d="M3.4 -4C4.2 -3.3 4.8 -2.1 4.9 -0.9C5.1 0.3 5 1.6 4.4 2.6C3.9 3.6 2.9 4.3 1.7 4.7C0.6 5.1 -0.6 5.1 -1.7 4.7C-2.7 4.2 -3.7 3.4 -4.3 2.4C-5 1.4 -5.3 0.2 -5.2 -1C-5.1 -2.2 -4.4 -3.4 -3.5 -4.1C-2.5 -4.9 -1.3 -5.3 0 -5.2C1.2 -5.2 2.5 -4.8 3.4 -4Z" fill="#383e44"></path></g><g transform="translate(473 268)"><path d="M5 -6C6.4 -4.8 7.4 -3.1 7.8 -1.4C8.1 0.4 7.7 2.3 6.8 3.9C5.8 5.4 4.3 6.6 2.6 7.3C0.9 8 -1.1 8.2 -2.8 7.6C-4.6 7.1 -6.1 5.7 -7 4.1C-8 2.4 -8.4 0.4 -8 -1.4C-7.7 -3.3 -6.7 -5 -5.2 -6.2C-3.8 -7.4 -1.9 -8 -0.1 -7.9C1.8 -7.9 3.6 -7.1 5 -6Z" fill="#383e44"></path></g><g transform="translate(857 142)"><path d="M3.5 -4.2C4.4 -3.4 5 -2.2 5.1 -1C5.2 0.3 5 1.5 4.4 2.5C3.8 3.5 2.8 4.4 1.7 4.8C0.6 5.2 -0.6 5.2 -1.8 4.8C-2.9 4.5 -3.9 3.7 -4.6 2.6C-5.3 1.6 -5.5 0.3 -5.3 -0.9C-5.1 -2.1 -4.4 -3.2 -3.4 -4C-2.4 -4.8 -1.2 -5.3 0 -5.3C1.3 -5.4 2.6 -5 3.5 -4.2Z" fill="#383e44"></path></g><g transform="translate(491 123)"><path d="M4 -4.7C5.1 -3.8 5.9 -2.5 6.1 -1.1C6.3 0.2 5.8 1.7 5.1 2.9C4.3 4.1 3.3 5.2 2 5.7C0.7 6.2 -0.8 6.2 -2.1 5.8C-3.4 5.3 -4.5 4.3 -5.1 3C-5.8 1.8 -6 0.4 -5.8 -1.1C-5.6 -2.5 -5 -3.9 -4 -4.7C-2.9 -5.6 -1.5 -5.9 0 -5.9C1.4 -5.9 2.9 -5.5 4 -4.7Z" fill="#383e44"></path></g><g transform="translate(534 122)"><path d="M3.4 -4.2C4.3 -3.4 4.8 -2.1 4.9 -0.9C5.1 0.3 4.8 1.5 4.3 2.5C3.7 3.5 2.8 4.3 1.7 4.8C0.6 5.3 -0.7 5.4 -1.8 5C-2.9 4.6 -3.7 3.6 -4.3 2.5C-4.9 1.4 -5.3 0.2 -5.1 -0.9C-4.9 -2.1 -4.3 -3.3 -3.4 -4.1C-2.5 -4.9 -1.2 -5.4 0 -5.5C1.3 -5.5 2.6 -5 3.4 -4.2Z" fill="#383e44"></path></g><g transform="translate(1 63)"><path d="M6.4 -7.6C8.2 -6.1 9.5 -4 10.1 -1.6C10.7 0.7 10.5 3.4 9.4 5.5C8.3 7.7 6.2 9.5 3.8 10.3C1.4 11.1 -1.3 11 -3.5 10.1C-5.8 9.1 -7.6 7.3 -8.8 5.1C-10 2.9 -10.7 0.5 -10.3 -1.9C-10 -4.2 -8.6 -6.4 -6.7 -7.9C-4.8 -9.4 -2.4 -10.3 -0.1 -10.2C2.3 -10.1 4.5 -9.1 6.4 -7.6Z" fill="#383e44"></path></g><g transform="translate(553 25)"><path d="M5.2 -6.2C6.5 -5 7.4 -3.2 7.7 -1.4C8 0.5 7.9 2.5 6.9 4C6 5.4 4.4 6.5 2.6 7C0.9 7.5 -0.9 7.5 -2.6 6.9C-4.3 6.4 -5.8 5.3 -6.9 3.8C-7.9 2.3 -8.3 0.4 -8 -1.4C-7.6 -3.1 -6.5 -4.7 -5 -5.9C-3.5 -7 -1.8 -7.7 0.1 -7.8C1.9 -7.9 3.8 -7.3 5.2 -6.2Z" fill="#383e44"></path></g><g transform="translate(397 113)"><path d="M3.2 -3.9C4.1 -3.1 4.8 -2 5 -0.8C5.3 0.4 5.2 1.7 4.6 2.7C4 3.7 2.9 4.3 1.7 4.7C0.6 5.2 -0.7 5.3 -1.9 5C-3 4.6 -4 3.8 -4.7 2.7C-5.3 1.6 -5.6 0.3 -5.3 -0.9C-5.1 -2.1 -4.3 -3.1 -3.3 -3.8C-2.3 -4.6 -1.2 -5 0 -5C1.2 -5 2.3 -4.6 3.2 -3.9Z" fill="#383e44"></path></g><g transform="translate(518 41)"><path d="M3.3 -3.9C4.3 -3.2 5 -2.1 5.2 -0.9C5.4 0.2 5.1 1.5 4.4 2.6C3.8 3.6 2.9 4.5 1.7 5C0.6 5.4 -0.7 5.5 -1.9 5.1C-3 4.7 -3.9 3.8 -4.5 2.7C-5 1.6 -5.1 0.3 -4.9 -0.8C-4.6 -2 -4.1 -3.1 -3.2 -3.8C-2.4 -4.6 -1.2 -5 0 -5C1.2 -5 2.4 -4.6 3.3 -3.9Z" fill="#383e44"></path></g><g transform="translate(210 15)"><path d="M3.5 -4C4.4 -3.3 5.1 -2.2 5.3 -1C5.4 0.2 5 1.5 4.4 2.6C3.8 3.7 2.9 4.7 1.8 5.1C0.7 5.5 -0.6 5.3 -1.8 4.9C-2.9 4.4 -4 3.7 -4.6 2.7C-5.2 1.6 -5.4 0.3 -5.2 -0.9C-5 -2.2 -4.4 -3.3 -3.5 -4.1C-2.5 -4.8 -1.3 -5 0 -5C1.3 -5 2.5 -4.8 3.5 -4Z" fill="#383e44"></path></g><g transform="translate(589 28)"><path d="M6.2 -7.4C7.8 -6 8.9 -3.9 9.3 -1.6C9.7 0.6 9.4 2.9 8.4 4.9C7.3 6.8 5.4 8.2 3.3 8.9C1.3 9.5 -1 9.3 -3 8.5C-5 7.7 -6.8 6.3 -7.9 4.5C-9.1 2.7 -9.7 0.4 -9.4 -1.8C-9.2 -3.9 -8 -6.1 -6.3 -7.5C-4.6 -8.9 -2.3 -9.6 0 -9.6C2.3 -9.6 4.5 -8.8 6.2 -7.4Z" fill="#383e44"></path></g><g transform="translate(868 81)"><path d="M3.4 -4C4.4 -3.2 5.1 -2.1 5.4 -0.9C5.6 0.3 5.4 1.6 4.7 2.7C4.1 3.7 3 4.5 1.8 4.9C0.6 5.3 -0.7 5.4 -1.8 5C-3 4.6 -4 3.7 -4.6 2.7C-5.1 1.6 -5.2 0.3 -5 -0.9C-4.8 -2.1 -4.3 -3.3 -3.4 -4.1C-2.5 -4.9 -1.3 -5.3 0 -5.3C1.2 -5.3 2.4 -4.8 3.4 -4Z" fill="#383e44"></path></g><g transform="translate(75 299)"><path d="M6.8 -7.9C8.7 -6.4 10.2 -4.2 10.7 -1.9C11.2 0.5 10.6 3.2 9.3 5.4C8 7.6 6 9.4 3.7 10.2C1.4 11 -1.2 10.8 -3.5 9.9C-5.8 8.9 -7.7 7.3 -8.9 5.2C-10.1 3.1 -10.5 0.6 -10.1 -1.7C-9.6 -4 -8.2 -6.1 -6.4 -7.5C-4.6 -9 -2.3 -9.9 0.1 -10C2.4 -10 4.8 -9.3 6.8 -7.9Z" fill="#383e44"></path></g><g transform="translate(639 208)"><path d="M4.9 -5.7C6.4 -4.6 7.6 -3.1 8 -1.3C8.3 0.4 7.9 2.4 6.9 3.9C5.9 5.5 4.4 6.7 2.7 7.3C1 7.8 -0.9 7.7 -2.5 7.1C-4.2 6.4 -5.6 5.2 -6.5 3.7C-7.4 2.2 -7.7 0.4 -7.4 -1.3C-7.1 -3 -6.2 -4.7 -4.8 -5.7C-3.5 -6.8 -1.8 -7.4 0 -7.4C1.7 -7.3 3.4 -6.7 4.9 -5.7Z" fill="#383e44"></path></g><g transform="translate(653 260)"><path d="M3.3 -4C4.2 -3.2 4.9 -2.1 5.1 -0.9C5.4 0.3 5.2 1.6 4.6 2.7C4 3.8 3 4.6 1.9 5C0.7 5.4 -0.6 5.3 -1.7 4.8C-2.9 4.4 -3.8 3.6 -4.4 2.6C-5 1.5 -5.2 0.3 -5 -0.9C-4.8 -2.1 -4.2 -3.2 -3.3 -4C-2.4 -4.9 -1.2 -5.4 0 -5.4C1.2 -5.4 2.4 -4.8 3.3 -4Z" fill="#383e44"></path></g><g transform="translate(836 67)"><path d="M6.3 -7.7C7.9 -6.1 8.8 -3.9 9.2 -1.6C9.6 0.6 9.4 3 8.4 4.9C7.3 6.8 5.4 8.2 3.3 8.9C1.1 9.7 -1.3 9.9 -3.4 9.2C-5.5 8.5 -7.4 6.9 -8.4 5C-9.4 3 -9.4 0.7 -9.1 -1.6C-8.7 -3.9 -7.8 -6.1 -6.3 -7.7C-4.7 -9.2 -2.3 -10.1 0 -10.1C2.3 -10.1 4.7 -9.2 6.3 -7.7Z" fill="#383e44"></path></g><g transform="translate(219 245)"><path d="M5.5 -6.5C7.1 -5.2 8.3 -3.4 8.7 -1.5C9 0.4 8.5 2.5 7.5 4.3C6.4 6.1 4.8 7.5 3 8.2C1.1 8.9 -1.1 8.8 -3 8.1C-4.8 7.4 -6.5 6.1 -7.5 4.3C-8.4 2.6 -8.8 0.5 -8.4 -1.5C-8 -3.4 -7 -5.3 -5.5 -6.6C-4 -7.9 -2 -8.8 0 -8.7C2 -8.7 3.9 -7.8 5.5 -6.5Z" fill="#383e44"></path></g><g transform="translate(528 85)"><path d="M4.7 -5.7C6.1 -4.5 7.1 -3 7.4 -1.3C7.8 0.4 7.5 2.3 6.6 3.8C5.7 5.3 4.3 6.5 2.6 7.1C0.9 7.7 -0.9 7.7 -2.6 7.1C-4.3 6.5 -5.8 5.4 -6.7 3.9C-7.6 2.3 -7.9 0.4 -7.7 -1.4C-7.4 -3.2 -6.5 -5 -5.1 -6.1C-3.8 -7.2 -1.9 -7.8 -0.1 -7.7C1.7 -7.6 3.4 -6.8 4.7 -5.7Z" fill="#383e44"></path></g><g transform="translate(21 230)"><path d="M6.5 -7.7C8.3 -6.1 9.7 -4.1 10.3 -1.7C10.8 0.7 10.5 3.3 9.2 5.3C8 7.2 5.8 8.6 3.5 9.3C1.2 10 -1.3 10.1 -3.5 9.3C-5.6 8.6 -7.6 7.1 -8.9 5C-10.2 3 -10.9 0.5 -10.4 -1.8C-10 -4.1 -8.5 -6.2 -6.6 -7.8C-4.7 -9.3 -2.3 -10.3 0 -10.3C2.3 -10.3 4.6 -9.3 6.5 -7.7Z" fill="#383e44"></path></g><g transform="translate(24 279)"><path d="M4.4 -5.3C5.6 -4.2 6.5 -2.8 6.7 -1.2C7 0.3 6.6 2 5.8 3.3C5 4.6 3.7 5.6 2.2 6.2C0.7 6.8 -0.9 6.9 -2.4 6.5C-3.9 6 -5.3 4.9 -6 3.5C-6.8 2.2 -6.9 0.5 -6.6 -1.1C-6.2 -2.7 -5.4 -4.1 -4.2 -5.2C-3.1 -6.3 -1.5 -7 0 -7.1C1.6 -7.1 3.2 -6.4 4.4 -5.3Z" fill="#383e44"></path></g><g transform="translate(800 175)"><path d="M4.9 -5.8C6.3 -4.7 7.4 -3.1 7.7 -1.3C8.1 0.5 7.9 2.4 7 4.1C6.1 5.7 4.5 7 2.8 7.6C1 8.2 -1 8.2 -2.7 7.6C-4.5 6.9 -5.9 5.6 -6.8 4C-7.6 2.4 -7.8 0.5 -7.5 -1.3C-7.2 -3.1 -6.4 -4.9 -5 -6C-3.7 -7.1 -1.8 -7.6 0 -7.6C1.8 -7.5 3.5 -6.9 4.9 -5.8Z" fill="#383e44"></path></g><g transform="translate(42 24)"><path d="M4.8 -5.8C6.2 -4.6 7.2 -3 7.4 -1.3C7.7 0.4 7.3 2.2 6.4 3.8C5.6 5.4 4.3 6.8 2.6 7.5C1 8.2 -1.1 8.3 -2.8 7.7C-4.6 7.1 -6.1 5.7 -7 4.1C-7.9 2.4 -8.2 0.5 -7.8 -1.3C-7.5 -3.1 -6.4 -4.7 -5 -6C-3.6 -7.2 -1.8 -8 0 -8C1.7 -8 3.5 -7.1 4.8 -5.8Z" fill="#383e44"></path></g><g transform="translate(172 121)"><path d="M5.1 -6C6.5 -4.9 7.3 -3.2 7.6 -1.4C7.8 0.4 7.4 2.2 6.5 3.8C5.7 5.4 4.3 6.7 2.6 7.3C1 7.9 -0.9 7.8 -2.6 7.2C-4.4 6.6 -6 5.5 -6.9 4C-7.7 2.5 -7.8 0.5 -7.4 -1.2C-7 -3 -6.1 -4.5 -4.7 -5.7C-3.4 -6.8 -1.7 -7.4 0.1 -7.5C1.9 -7.6 3.7 -7.1 5.1 -6Z" fill="#383e44"></path></g><g transform="translate(136 169)"><path d="M4.3 -5.3C5.5 -4.2 6.3 -2.7 6.5 -1.2C6.8 0.4 6.5 2 5.8 3.4C5.1 4.8 3.9 6 2.4 6.6C0.9 7.2 -0.9 7.3 -2.4 6.7C-4 6.1 -5.3 5 -6.2 3.6C-7 2.1 -7.4 0.4 -7.1 -1.2C-6.7 -2.8 -5.8 -4.3 -4.5 -5.4C-3.2 -6.4 -1.6 -7.2 0 -7.1C1.6 -7.1 3.2 -6.4 4.3 -5.3Z" fill="#383e44"></path></g><g transform="translate(394 229)"><path d="M4.9 -5.9C6.4 -4.7 7.5 -3.1 7.9 -1.3C8.3 0.5 8 2.4 7 4.1C6.1 5.7 4.6 7 2.8 7.6C1.1 8.1 -0.9 7.9 -2.5 7.2C-4.2 6.5 -5.6 5.3 -6.5 3.8C-7.3 2.2 -7.6 0.4 -7.3 -1.3C-7 -3 -6.1 -4.6 -4.8 -5.9C-3.5 -7.1 -1.7 -8 0 -8.1C1.8 -8.1 3.5 -7.2 4.9 -5.9Z" fill="#383e44"></path></g><g transform="translate(577 78)"><path d="M3.4 -3.9C4.3 -3.2 5.1 -2.1 5.3 -0.9C5.5 0.3 5.2 1.5 4.5 2.6C3.9 3.6 2.9 4.4 1.8 4.8C0.6 5.2 -0.6 5.1 -1.8 4.8C-2.9 4.4 -4 3.7 -4.7 2.7C-5.3 1.6 -5.4 0.3 -5.2 -0.9C-5 -2.1 -4.4 -3.3 -3.4 -4C-2.5 -4.7 -1.2 -5 0 -5C1.2 -5 2.4 -4.6 3.4 -3.9Z" fill="#383e44"></path></g><g transform="translate(428 271)"><path d="M4.8 -5.7C6.2 -4.6 7.1 -3 7.4 -1.3C7.8 0.5 7.6 2.4 6.7 4C5.9 5.5 4.4 6.8 2.7 7.4C1 7.9 -0.9 7.7 -2.6 7.1C-4.3 6.4 -5.8 5.3 -6.7 3.8C-7.5 2.3 -7.7 0.5 -7.4 -1.3C-7.1 -3.1 -6.2 -4.8 -4.9 -5.9C-3.6 -7 -1.8 -7.5 0 -7.5C1.7 -7.5 3.5 -6.9 4.8 -5.7Z" fill="#383e44"></path></g><g transform="translate(452 223)"><path d="M5.3 -6.3C6.8 -5.1 7.9 -3.3 8.2 -1.5C8.5 0.4 8.2 2.5 7.2 4.1C6.2 5.8 4.6 7.1 2.8 7.8C1 8.5 -1.1 8.6 -3 8C-4.8 7.4 -6.5 6.1 -7.5 4.3C-8.6 2.6 -8.9 0.5 -8.5 -1.5C-8.2 -3.4 -7 -5.3 -5.5 -6.4C-3.9 -7.6 -2 -8.2 0 -8.2C1.9 -8.2 3.9 -7.5 5.3 -6.3Z" fill="#383e44"></path></g><g transform="translate(173 63)"><path d="M3.3 -4C4.3 -3.2 5 -2.1 5.3 -0.9C5.5 0.2 5.1 1.5 4.5 2.6C3.9 3.7 2.9 4.5 1.8 5C0.7 5.4 -0.6 5.3 -1.8 4.9C-2.9 4.5 -3.9 3.6 -4.4 2.6C-5 1.6 -5.2 0.3 -5 -0.9C-4.8 -2.1 -4.3 -3.3 -3.4 -4.1C-2.5 -4.8 -1.2 -5.2 0 -5.2C1.2 -5.2 2.4 -4.7 3.3 -4Z" fill="#383e44"></path></g><g transform="translate(852 257)"><path d="M3.9 -4.7C5 -3.8 5.7 -2.5 5.9 -1.1C6.1 0.3 5.9 1.8 5.2 3C4.5 4.3 3.4 5.4 2.1 5.8C0.8 6.2 -0.6 6 -2 5.5C-3.3 5 -4.4 4.1 -5.1 2.9C-5.8 1.8 -6 0.3 -5.8 -1.1C-5.6 -2.5 -5 -3.9 -4 -4.8C-2.9 -5.6 -1.5 -6 0 -6C1.4 -6 2.9 -5.6 3.9 -4.7Z" fill="#383e44"></path></g><g transform="translate(269 295)"><path d="M5.7 -6.9C7.2 -5.5 8.1 -3.6 8.4 -1.5C8.7 0.5 8.4 2.6 7.4 4.3C6.5 6 4.8 7.4 2.9 8.1C1 8.8 -1.1 8.9 -2.9 8.2C-4.7 7.5 -6.2 6 -7.3 4.2C-8.4 2.4 -9.1 0.3 -8.8 -1.6C-8.5 -3.6 -7.4 -5.5 -5.7 -6.8C-4.1 -8.2 -2.1 -9 0 -9C2.1 -9.1 4.2 -8.3 5.7 -6.9Z" fill="#383e44"></path></g><g transform="translate(89 142)"><path d="M6.2 -7.5C7.9 -6 9 -3.9 9.4 -1.6C9.8 0.6 9.6 3 8.5 4.9C7.4 6.8 5.5 8.2 3.3 8.9C1.1 9.6 -1.2 9.7 -3.3 8.9C-5.4 8.2 -7.3 6.7 -8.5 4.8C-9.7 2.9 -10.2 0.5 -9.8 -1.7C-9.3 -3.8 -7.9 -5.7 -6.1 -7.2C-4.3 -8.6 -2.1 -9.6 0.1 -9.7C2.3 -9.8 4.6 -9 6.2 -7.5Z" fill="#383e44"></path></g><g transform="translate(540 279)"><path d="M7.1 -8.2C9 -6.8 10.3 -4.4 10.5 -2C10.8 0.4 10.1 2.9 8.8 5C7.5 7.2 5.7 8.9 3.5 9.9C1.3 10.8 -1.3 10.8 -3.6 10C-5.9 9.1 -7.9 7.4 -9.1 5.3C-10.3 3.1 -10.9 0.6 -10.4 -1.8C-9.9 -4.1 -8.4 -6.2 -6.6 -7.7C-4.7 -9.1 -2.3 -9.9 0.1 -10C2.6 -10.2 5.1 -9.7 7.1 -8.2Z" fill="#383e44"></path></g><g transform="translate(823 107)"><path d="M3.9 -4.6C5 -3.7 5.9 -2.4 6.1 -1.1C6.3 0.2 5.8 1.7 5.1 2.9C4.4 4.1 3.3 5.2 2 5.7C0.7 6.2 -0.7 6.2 -2.1 5.7C-3.4 5.2 -4.5 4.2 -5.2 3C-5.9 1.8 -6.1 0.3 -5.9 -1.1C-5.7 -2.5 -5.1 -3.9 -4 -4.8C-2.9 -5.6 -1.5 -6 0 -6C1.4 -5.9 2.8 -5.4 3.9 -4.6Z" fill="#383e44"></path></g><g transform="translate(768 251)"><path d="M3.5 -4.1C4.4 -3.3 5.1 -2.2 5.3 -0.9C5.5 0.3 5.3 1.6 4.6 2.7C4 3.7 3 4.6 1.8 5C0.7 5.3 -0.6 5.2 -1.7 4.8C-2.8 4.4 -3.8 3.6 -4.5 2.5C-5.2 1.5 -5.5 0.2 -5.3 -1C-5.2 -2.2 -4.4 -3.3 -3.5 -4.1C-2.5 -4.8 -1.2 -5.2 0 -5.3C1.3 -5.3 2.5 -4.9 3.5 -4.1Z" fill="#383e44"></path></g></g></svg>