<svg id="visual" viewBox="0 0 900 300" width="900" height="300" xmlns="http://www.w3.org/2000/svg" xmlns:xlink="http://www.w3.org/1999/xlink" version="1.1"><rect x="0" y="0" width="900" height="300" fill="#001122"></rect><g transform="translate(-12.145236309027013 313.17457386206945)"><path d="M281.1 -437.9C363.3 -439.5 428 -362 461.8 -275.8C495.5 -189.7 498.3 -94.8 416.1 -47.4C334 0 167 0 130.7 81.7C94.3 163.4 188.7 326.8 188.7 385.3C188.7 443.8 94.3 397.4 46.4 317C-1.5 236.6 -3 122.2 -75.6 105.6C-148.2 89 -291.9 170.3 -372.3 169C-452.7 167.7 -469.9 83.8 -454.6 8.8C-439.3 -66.2 -391.5 -132.3 -360.4 -218.9C-329.2 -305.5 -314.6 -412.6 -257.3 -425.3C-200 -438.1 -100 -356.5 -0.3 -356.1C99.5 -355.7 199 -436.3 281.1 -437.9" fill="#0066FF"></path></g></svg>