<svg id="visual" viewBox="0 0 900 300" width="900" height="300" xmlns="http://www.w3.org/2000/svg" xmlns:xlink="http://www.w3.org/1999/xlink" version="1.1"><rect x="0" y="0" width="900" height="300" fill="#001122"></rect><path d="M289 300L306 300L306 282L351 282L351 265L326 265L326 247L294 247L294 229L350 229L350 212L318 212L318 194L285 194L285 176L318 176L318 159L292 159L292 141L318 141L318 124L337 124L337 106L311 106L311 88L312 88L312 71L320 71L320 53L315 53L315 35L283 35L283 18L348 18L348 0L900 0L900 18L900 18L900 35L900 35L900 53L900 53L900 71L900 71L900 88L900 88L900 106L900 106L900 124L900 124L900 141L900 141L900 159L900 159L900 176L900 176L900 194L900 194L900 212L900 212L900 229L900 229L900 247L900 247L900 265L900 265L900 282L900 282L900 300L900 300Z" fill="#001122"></path><path d="M335 300L335 300L335 282L397 282L397 265L390 265L390 247L354 247L354 229L397 229L397 212L358 212L358 194L392 194L392 176L341 176L341 159L386 159L386 141L383 141L383 124L340 124L340 106L343 106L343 88L336 88L336 71L340 71L340 53L382 53L382 35L341 35L341 18L373 18L373 0L900 0L900 18L900 18L900 35L900 35L900 53L900 53L900 71L900 71L900 88L900 88L900 106L900 106L900 124L900 124L900 141L900 141L900 159L900 159L900 176L900 176L900 194L900 194L900 212L900 212L900 229L900 229L900 247L900 247L900 265L900 265L900 282L900 282L900 300L900 300Z" fill="#131d36"></path><path d="M413 300L418 300L418 282L447 282L447 265L411 265L411 247L440 247L440 229L424 229L424 212L438 212L438 194L378 194L378 176L449 176L449 159L410 159L410 141L406 141L406 124L430 124L430 106L422 106L422 88L399 88L399 71L434 71L434 53L396 53L396 35L393 35L393 18L429 18L429 0L900 0L900 18L900 18L900 35L900 35L900 53L900 53L900 71L900 71L900 88L900 88L900 106L900 106L900 124L900 124L900 141L900 141L900 159L900 159L900 176L900 176L900 194L900 194L900 212L900 212L900 229L900 229L900 247L900 247L900 265L900 265L900 282L900 282L900 300L900 300Z" fill="#2c2749"></path><path d="M474 300L503 300L503 282L443 282L443 265L496 265L496 247L460 247L460 229L441 229L441 212L486 212L486 194L503 194L503 176L486 176L486 159L437 159L437 141L438 141L438 124L434 124L434 106L437 106L437 88L502 88L502 71L435 71L435 53L496 53L496 35L453 35L453 18L465 18L465 0L900 0L900 18L900 18L900 35L900 35L900 53L900 53L900 71L900 71L900 88L900 88L900 106L900 106L900 124L900 124L900 141L900 141L900 159L900 159L900 176L900 176L900 194L900 194L900 212L900 212L900 229L900 229L900 247L900 247L900 265L900 265L900 282L900 282L900 300L900 300Z" fill="#493059"></path><path d="M509 300L522 300L522 282L485 282L485 265L527 265L527 247L511 247L511 229L507 229L507 212L520 212L520 194L542 194L542 176L490 176L490 159L482 159L482 141L506 141L506 124L488 124L488 106L482 106L482 88L521 88L521 71L518 71L518 53L490 53L490 35L533 35L533 18L525 18L525 0L900 0L900 18L900 18L900 35L900 35L900 53L900 53L900 71L900 71L900 88L900 88L900 106L900 106L900 124L900 124L900 141L900 141L900 159L900 159L900 176L900 176L900 194L900 194L900 212L900 212L900 229L900 229L900 247L900 247L900 265L900 265L900 282L900 282L900 300L900 300Z" fill="#683764"></path><path d="M559 300L558 300L558 282L526 282L526 265L564 265L564 247L573 247L573 229L546 229L546 212L539 212L539 194L525 194L525 176L573 176L573 159L575 159L575 141L573 141L573 124L562 124L562 106L585 106L585 88L527 88L527 71L580 71L580 53L581 53L581 35L553 35L553 18L574 18L574 0L900 0L900 18L900 18L900 35L900 35L900 53L900 53L900 71L900 71L900 88L900 88L900 106L900 106L900 124L900 124L900 141L900 141L900 159L900 159L900 176L900 176L900 194L900 194L900 212L900 212L900 229L900 229L900 247L900 247L900 265L900 265L900 282L900 282L900 300L900 300Z" fill="#893e6a"></path><path d="M596 300L607 300L607 282L582 282L582 265L610 265L610 247L618 247L618 229L579 229L579 212L638 212L638 194L614 194L614 176L615 176L615 159L591 159L591 141L589 141L589 124L572 124L572 106L618 106L618 88L641 88L641 71L624 71L624 53L578 53L578 35L621 35L621 18L648 18L648 0L900 0L900 18L900 18L900 35L900 35L900 53L900 53L900 71L900 71L900 88L900 88L900 106L900 106L900 124L900 124L900 141L900 141L900 159L900 159L900 176L900 176L900 194L900 194L900 212L900 212L900 229L900 229L900 247L900 247L900 265L900 265L900 282L900 282L900 300L900 300Z" fill="#a9476b"></path><path d="M692 300L647 300L647 282L668 282L668 265L623 265L623 247L663 247L663 229L673 229L673 212L639 212L639 194L650 194L650 176L643 176L643 159L658 159L658 141L660 141L660 124L655 124L655 106L694 106L694 88L667 88L667 71L631 71L631 53L696 53L696 35L662 35L662 18L672 18L672 0L900 0L900 18L900 18L900 35L900 35L900 53L900 53L900 71L900 71L900 88L900 88L900 106L900 106L900 124L900 124L900 141L900 141L900 159L900 159L900 176L900 176L900 194L900 194L900 212L900 212L900 229L900 229L900 247L900 247L900 265L900 265L900 282L900 282L900 300L900 300Z" fill="#c55366"></path><path d="M741 300L742 300L742 282L720 282L720 265L682 265L682 247L680 247L680 229L670 229L670 212L697 212L697 194L690 194L690 176L718 176L718 159L716 159L716 141L715 141L715 124L705 124L705 106L732 106L732 88L743 88L743 71L724 71L724 53L695 53L695 35L680 35L680 18L701 18L701 0L900 0L900 18L900 18L900 35L900 35L900 53L900 53L900 71L900 71L900 88L900 88L900 106L900 106L900 124L900 124L900 141L900 141L900 159L900 159L900 176L900 176L900 194L900 194L900 212L900 212L900 229L900 229L900 247L900 247L900 265L900 265L900 282L900 282L900 300L900 300Z" fill="#dd645e"></path><path d="M783 300L793 300L793 282L781 282L781 265L732 265L732 247L765 247L765 229L768 229L768 212L720 212L720 194L727 194L727 176L750 176L750 159L760 159L760 141L787 141L787 124L734 124L734 106L785 106L785 88L760 88L760 71L749 71L749 53L758 53L758 35L785 35L785 18L778 18L778 0L900 0L900 18L900 18L900 35L900 35L900 53L900 53L900 71L900 71L900 88L900 88L900 106L900 106L900 124L900 124L900 141L900 141L900 159L900 159L900 176L900 176L900 194L900 194L900 212L900 212L900 229L900 229L900 247L900 247L900 265L900 265L900 282L900 282L900 300L900 300Z" fill="#ef7953"></path><path d="M834 300L833 300L833 282L791 282L791 265L791 265L791 247L827 247L827 229L832 229L832 212L840 212L840 194L787 194L787 176L824 176L824 159L834 159L834 141L802 141L802 124L803 124L803 106L784 106L784 88L836 88L836 71L818 71L818 53L788 53L788 35L770 35L770 18L809 18L809 0L900 0L900 18L900 18L900 35L900 35L900 53L900 53L900 71L900 71L900 88L900 88L900 106L900 106L900 124L900 124L900 141L900 141L900 159L900 159L900 176L900 176L900 194L900 194L900 212L900 212L900 229L900 229L900 247L900 247L900 265L900 265L900 282L900 282L900 300L900 300Z" fill="#f99347"></path><path d="M887 300L860 300L860 282L856 282L856 265L865 265L865 247L885 247L885 229L828 229L828 212L874 212L874 194L873 194L873 176L826 176L826 159L845 159L845 141L857 141L857 124L847 124L847 106L827 106L827 88L817 88L817 71L824 71L824 53L884 53L884 35L871 35L871 18L871 18L871 0L900 0L900 18L900 18L900 35L900 35L900 53L900 53L900 71L900 71L900 88L900 88L900 106L900 106L900 124L900 124L900 141L900 141L900 159L900 159L900 176L900 176L900 194L900 194L900 212L900 212L900 229L900 229L900 247L900 247L900 265L900 265L900 282L900 282L900 300L900 300Z" fill="#fcaf3c"></path></svg>