<svg id="visual" viewBox="0 0 900 300" width="900" height="300" xmlns="http://www.w3.org/2000/svg" xmlns:xlink="http://www.w3.org/1999/xlink" version="1.1"><rect x="0" y="0" width="900" height="300" fill="#001220"></rect><path d="M0 89L6.5 93.8C13 98.7 26 108.3 39 112.3C52 116.3 65 114.7 78 116.2C91 117.7 104 122.3 117.2 130.3C130.3 138.3 143.7 149.7 156.8 162C170 174.3 183 187.7 196 187.8C209 188 222 175 235 166.2C248 157.3 261 152.7 274 147.7C287 142.7 300 137.3 313 144.5C326 151.7 339 171.3 352 173.5C365 175.7 378 160.3 391 159.3C404 158.3 417 171.7 430.2 173.7C443.3 175.7 456.7 166.3 469.8 159C483 151.7 496 146.3 509 146.7C522 147 535 153 548 162.7C561 172.3 574 185.7 587 184.2C600 182.7 613 166.3 626 156.3C639 146.3 652 142.7 665 146.7C678 150.7 691 162.3 704 170.2C717 178 730 182 743.2 171.8C756.3 161.7 769.7 137.3 782.8 122.8C796 108.3 809 103.7 822 102.8C835 102 848 105 861 113C874 121 887 134 893.5 140.5L900 147L900 301L893.5 301C887 301 874 301 861 301C848 301 835 301 822 301C809 301 796 301 782.8 301C769.7 301 756.3 301 743.2 301C730 301 717 301 704 301C691 301 678 301 665 301C652 301 639 301 626 301C613 301 600 301 587 301C574 301 561 301 548 301C535 301 522 301 509 301C496 301 483 301 469.8 301C456.7 301 443.3 301 430.2 301C417 301 404 301 391 301C378 301 365 301 352 301C339 301 326 301 313 301C300 301 287 301 274 301C261 301 248 301 235 301C222 301 209 301 196 301C183 301 170 301 156.8 301C143.7 301 130.3 301 117.2 301C104 301 91 301 78 301C65 301 52 301 39 301C26 301 13 301 6.5 301L0 301Z" fill="#001122"></path><path d="M0 112L6.5 115.2C13 118.3 26 124.7 39 128.5C52 132.3 65 133.7 78 142.3C91 151 104 167 117.2 162.7C130.3 158.3 143.7 133.7 156.8 126.3C170 119 183 129 196 137.3C209 145.7 222 152.3 235 164.7C248 177 261 195 274 193.8C287 192.7 300 172.3 313 167.5C326 162.7 339 173.3 352 174C365 174.7 378 165.3 391 155.5C404 145.7 417 135.3 430.2 141.3C443.3 147.3 456.7 169.7 469.8 169.7C483 169.7 496 147.3 509 142.2C522 137 535 149 548 149.7C561 150.3 574 139.7 587 142.3C600 145 613 161 626 163.5C639 166 652 155 665 154.3C678 153.7 691 163.3 704 166.5C717 169.7 730 166.3 743.2 166.2C756.3 166 769.7 169 782.8 177.7C796 186.3 809 200.7 822 201.5C835 202.3 848 189.7 861 173C874 156.3 887 135.7 893.5 125.3L900 115L900 301L893.5 301C887 301 874 301 861 301C848 301 835 301 822 301C809 301 796 301 782.8 301C769.7 301 756.3 301 743.2 301C730 301 717 301 704 301C691 301 678 301 665 301C652 301 639 301 626 301C613 301 600 301 587 301C574 301 561 301 548 301C535 301 522 301 509 301C496 301 483 301 469.8 301C456.7 301 443.3 301 430.2 301C417 301 404 301 391 301C378 301 365 301 352 301C339 301 326 301 313 301C300 301 287 301 274 301C261 301 248 301 235 301C222 301 209 301 196 301C183 301 170 301 156.8 301C143.7 301 130.3 301 117.2 301C104 301 91 301 78 301C65 301 52 301 39 301C26 301 13 301 6.5 301L0 301Z" fill="#0e1b33"></path><path d="M0 217L6.5 217.2C13 217.3 26 217.7 39 212.2C52 206.7 65 195.3 78 190C91 184.7 104 185.3 117.2 187.8C130.3 190.3 143.7 194.7 156.8 195.5C170 196.3 183 193.7 196 194C209 194.3 222 197.7 235 187.3C248 177 261 153 274 142.3C287 131.7 300 134.3 313 148.5C326 162.7 339 188.3 352 200.7C365 213 378 212 391 202.8C404 193.7 417 176.3 430.2 170.5C443.3 164.7 456.7 170.3 469.8 178.7C483 187 496 198 509 197.2C522 196.3 535 183.7 548 181.3C561 179 574 187 587 184.2C600 181.3 613 167.7 626 161.7C639 155.7 652 157.3 665 168C678 178.7 691 198.3 704 199C717 199.7 730 181.3 743.2 181.3C756.3 181.3 769.7 199.7 782.8 205C796 210.3 809 202.7 822 188.7C835 174.7 848 154.3 861 155.2C874 156 887 178 893.5 189L900 200L900 301L893.5 301C887 301 874 301 861 301C848 301 835 301 822 301C809 301 796 301 782.8 301C769.7 301 756.3 301 743.2 301C730 301 717 301 704 301C691 301 678 301 665 301C652 301 639 301 626 301C613 301 600 301 587 301C574 301 561 301 548 301C535 301 522 301 509 301C496 301 483 301 469.8 301C456.7 301 443.3 301 430.2 301C417 301 404 301 391 301C378 301 365 301 352 301C339 301 326 301 313 301C300 301 287 301 274 301C261 301 248 301 235 301C222 301 209 301 196 301C183 301 170 301 156.8 301C143.7 301 130.3 301 117.2 301C104 301 91 301 78 301C65 301 52 301 39 301C26 301 13 301 6.5 301L0 301Z" fill="#202444"></path><path d="M0 214L6.5 201.7C13 189.3 26 164.7 39 156.8C52 149 65 158 78 158.7C91 159.3 104 151.7 117.2 161.8C130.3 172 143.7 200 156.8 201.8C170 203.7 183 179.3 196 176.5C209 173.7 222 192.3 235 193.2C248 194 261 177 274 176.3C287 175.7 300 191.3 313 189.7C326 188 339 169 352 164.3C365 159.7 378 169.3 391 169.8C404 170.3 417 161.7 430.2 165C443.3 168.3 456.7 183.7 469.8 187.8C483 192 496 185 509 187C522 189 535 200 548 196.3C561 192.7 574 174.3 587 171.8C600 169.3 613 182.7 626 192.3C639 202 652 208 665 212.2C678 216.3 691 218.7 704 210.5C717 202.3 730 183.7 743.2 181.7C756.3 179.7 769.7 194.3 782.8 192.7C796 191 809 173 822 175.3C835 177.7 848 200.3 861 201.3C874 202.3 887 181.7 893.5 171.3L900 161L900 301L893.5 301C887 301 874 301 861 301C848 301 835 301 822 301C809 301 796 301 782.8 301C769.7 301 756.3 301 743.2 301C730 301 717 301 704 301C691 301 678 301 665 301C652 301 639 301 626 301C613 301 600 301 587 301C574 301 561 301 548 301C535 301 522 301 509 301C496 301 483 301 469.8 301C456.7 301 443.3 301 430.2 301C417 301 404 301 391 301C378 301 365 301 352 301C339 301 326 301 313 301C300 301 287 301 274 301C261 301 248 301 235 301C222 301 209 301 196 301C183 301 170 301 156.8 301C143.7 301 130.3 301 117.2 301C104 301 91 301 78 301C65 301 52 301 39 301C26 301 13 301 6.5 301L0 301Z" fill="#362c54"></path><path d="M0 194L6.5 195.2C13 196.3 26 198.7 39 195.3C52 192 65 183 78 176.2C91 169.3 104 164.7 117.2 165.8C130.3 167 143.7 174 156.8 183.5C170 193 183 205 196 213C209 221 222 225 235 218.2C248 211.3 261 193.7 274 186C287 178.3 300 180.7 313 183.3C326 186 339 189 352 193.5C365 198 378 204 391 201.8C404 199.7 417 189.3 430.2 188.5C443.3 187.7 456.7 196.3 469.8 193.7C483 191 496 177 509 176.2C522 175.3 535 187.7 548 191.3C561 195 574 190 587 187C600 184 613 183 626 184.5C639 186 652 190 665 191.3C678 192.7 691 191.3 704 188.2C717 185 730 180 743.2 182.8C756.3 185.7 769.7 196.3 782.8 202.2C796 208 809 209 822 202.7C835 196.3 848 182.7 861 181C874 179.3 887 189.7 893.5 194.8L900 200L900 301L893.5 301C887 301 874 301 861 301C848 301 835 301 822 301C809 301 796 301 782.8 301C769.7 301 756.3 301 743.2 301C730 301 717 301 704 301C691 301 678 301 665 301C652 301 639 301 626 301C613 301 600 301 587 301C574 301 561 301 548 301C535 301 522 301 509 301C496 301 483 301 469.8 301C456.7 301 443.3 301 430.2 301C417 301 404 301 391 301C378 301 365 301 352 301C339 301 326 301 313 301C300 301 287 301 274 301C261 301 248 301 235 301C222 301 209 301 196 301C183 301 170 301 156.8 301C143.7 301 130.3 301 117.2 301C104 301 91 301 78 301C65 301 52 301 39 301C26 301 13 301 6.5 301L0 301Z" fill="#4f3361"></path><path d="M0 186L6.5 187C13 188 26 190 39 198.3C52 206.7 65 221.3 78 218.5C91 215.7 104 195.3 117.2 193.3C130.3 191.3 143.7 207.7 156.8 213C170 218.3 183 212.7 196 205C209 197.3 222 187.7 235 189.7C248 191.7 261 205.3 274 212.5C287 219.7 300 220.3 313 218.7C326 217 339 213 352 213.8C365 214.7 378 220.3 391 223C404 225.7 417 225.3 430.2 219.5C443.3 213.7 456.7 202.3 469.8 201.7C483 201 496 211 509 215.3C522 219.7 535 218.3 548 214.5C561 210.7 574 204.3 587 206.3C600 208.3 613 218.7 626 218C639 217.3 652 205.7 665 198C678 190.3 691 186.7 704 191.8C717 197 730 211 743.2 216.7C756.3 222.3 769.7 219.7 782.8 212C796 204.3 809 191.7 822 187C835 182.3 848 185.7 861 190.3C874 195 887 201 893.5 204L900 207L900 301L893.5 301C887 301 874 301 861 301C848 301 835 301 822 301C809 301 796 301 782.8 301C769.7 301 756.3 301 743.2 301C730 301 717 301 704 301C691 301 678 301 665 301C652 301 639 301 626 301C613 301 600 301 587 301C574 301 561 301 548 301C535 301 522 301 509 301C496 301 483 301 469.8 301C456.7 301 443.3 301 430.2 301C417 301 404 301 391 301C378 301 365 301 352 301C339 301 326 301 313 301C300 301 287 301 274 301C261 301 248 301 235 301C222 301 209 301 196 301C183 301 170 301 156.8 301C143.7 301 130.3 301 117.2 301C104 301 91 301 78 301C65 301 52 301 39 301C26 301 13 301 6.5 301L0 301Z" fill="#6a386b"></path><path d="M0 210L6.5 213.2C13 216.3 26 222.7 39 218.8C52 215 65 201 78 199C91 197 104 207 117.2 214.3C130.3 221.7 143.7 226.3 156.8 228.8C170 231.3 183 231.7 196 231C209 230.3 222 228.7 235 223.5C248 218.3 261 209.7 274 211.3C287 213 300 225 313 232.8C326 240.7 339 244.3 352 241.5C365 238.7 378 229.3 391 226.3C404 223.3 417 226.7 430.2 229.2C443.3 231.7 456.7 233.3 469.8 233.7C483 234 496 233 509 226.5C522 220 535 208 548 203.2C561 198.3 574 200.7 587 205.8C600 211 613 219 626 224.7C639 230.3 652 233.7 665 234.3C678 235 691 233 704 229.7C717 226.3 730 221.7 743.2 221.3C756.3 221 769.7 225 782.8 222C796 219 809 209 822 204.8C835 200.7 848 202.3 861 203.8C874 205.3 887 206.7 893.5 207.3L900 208L900 301L893.5 301C887 301 874 301 861 301C848 301 835 301 822 301C809 301 796 301 782.8 301C769.7 301 756.3 301 743.2 301C730 301 717 301 704 301C691 301 678 301 665 301C652 301 639 301 626 301C613 301 600 301 587 301C574 301 561 301 548 301C535 301 522 301 509 301C496 301 483 301 469.8 301C456.7 301 443.3 301 430.2 301C417 301 404 301 391 301C378 301 365 301 352 301C339 301 326 301 313 301C300 301 287 301 274 301C261 301 248 301 235 301C222 301 209 301 196 301C183 301 170 301 156.8 301C143.7 301 130.3 301 117.2 301C104 301 91 301 78 301C65 301 52 301 39 301C26 301 13 301 6.5 301L0 301Z" fill="#863e72"></path><path d="M0 237L6.5 237.7C13 238.3 26 239.7 39 239.2C52 238.7 65 236.3 78 236C91 235.7 104 237.3 117.2 240C130.3 242.7 143.7 246.3 156.8 249.2C170 252 183 254 196 247.8C209 241.7 222 227.3 235 220.7C248 214 261 215 274 213.7C287 212.3 300 208.7 313 212.2C326 215.7 339 226.3 352 233C365 239.7 378 242.3 391 239.5C404 236.7 417 228.3 430.2 223C443.3 217.7 456.7 215.3 469.8 216C483 216.7 496 220.3 509 227.5C522 234.7 535 245.3 548 242.8C561 240.3 574 224.7 587 217.3C600 210 613 211 626 216C639 221 652 230 665 230.3C678 230.7 691 222.3 704 218.7C717 215 730 216 743.2 220.2C756.3 224.3 769.7 231.7 782.8 236.2C796 240.7 809 242.3 822 240.8C835 239.3 848 234.7 861 230.3C874 226 887 222 893.5 220L900 218L900 301L893.5 301C887 301 874 301 861 301C848 301 835 301 822 301C809 301 796 301 782.8 301C769.7 301 756.3 301 743.2 301C730 301 717 301 704 301C691 301 678 301 665 301C652 301 639 301 626 301C613 301 600 301 587 301C574 301 561 301 548 301C535 301 522 301 509 301C496 301 483 301 469.8 301C456.7 301 443.3 301 430.2 301C417 301 404 301 391 301C378 301 365 301 352 301C339 301 326 301 313 301C300 301 287 301 274 301C261 301 248 301 235 301C222 301 209 301 196 301C183 301 170 301 156.8 301C143.7 301 130.3 301 117.2 301C104 301 91 301 78 301C65 301 52 301 39 301C26 301 13 301 6.5 301L0 301Z" fill="#a24375"></path><path d="M0 258L6.5 252.5C13 247 26 236 39 231.3C52 226.7 65 228.3 78 231.8C91 235.3 104 240.7 117.2 240.2C130.3 239.7 143.7 233.3 156.8 235.7C170 238 183 249 196 255C209 261 222 262 235 260.7C248 259.3 261 255.7 274 254.7C287 253.7 300 255.3 313 253.3C326 251.3 339 245.7 352 243.5C365 241.3 378 242.7 391 242.8C404 243 417 242 430.2 242.2C443.3 242.3 456.7 243.7 469.8 243.7C483 243.7 496 242.3 509 239.8C522 237.3 535 233.7 548 234.5C561 235.3 574 240.7 587 246.3C600 252 613 258 626 260.7C639 263.3 652 262.7 665 256.5C678 250.3 691 238.7 704 236C717 233.3 730 239.7 743.2 239.3C756.3 239 769.7 232 782.8 227.5C796 223 809 221 822 220.3C835 219.7 848 220.3 861 223.5C874 226.7 887 232.3 893.5 235.2L900 238L900 301L893.5 301C887 301 874 301 861 301C848 301 835 301 822 301C809 301 796 301 782.8 301C769.7 301 756.3 301 743.2 301C730 301 717 301 704 301C691 301 678 301 665 301C652 301 639 301 626 301C613 301 600 301 587 301C574 301 561 301 548 301C535 301 522 301 509 301C496 301 483 301 469.8 301C456.7 301 443.3 301 430.2 301C417 301 404 301 391 301C378 301 365 301 352 301C339 301 326 301 313 301C300 301 287 301 274 301C261 301 248 301 235 301C222 301 209 301 196 301C183 301 170 301 156.8 301C143.7 301 130.3 301 117.2 301C104 301 91 301 78 301C65 301 52 301 39 301C26 301 13 301 6.5 301L0 301Z" fill="#bd4a75"></path><path d="M0 251L6.5 251.8C13 252.7 26 254.3 39 255.2C52 256 65 256 78 253.5C91 251 104 246 117.2 247.7C130.3 249.3 143.7 257.7 156.8 260.3C170 263 183 260 196 258.2C209 256.3 222 255.7 235 256.7C248 257.7 261 260.3 274 259C287 257.7 300 252.3 313 250C326 247.7 339 248.3 352 252.3C365 256.3 378 263.7 391 266C404 268.3 417 265.7 430.2 261.5C443.3 257.3 456.7 251.7 469.8 251.3C483 251 496 256 509 256C522 256 535 251 548 251.7C561 252.3 574 258.7 587 262C600 265.3 613 265.7 626 261.2C639 256.7 652 247.3 665 243.8C678 240.3 691 242.7 704 242.7C717 242.7 730 240.3 743.2 242.8C756.3 245.3 769.7 252.7 782.8 254.3C796 256 809 252 822 253.3C835 254.7 848 261.3 861 259.7C874 258 887 248 893.5 243L900 238L900 301L893.5 301C887 301 874 301 861 301C848 301 835 301 822 301C809 301 796 301 782.8 301C769.7 301 756.3 301 743.2 301C730 301 717 301 704 301C691 301 678 301 665 301C652 301 639 301 626 301C613 301 600 301 587 301C574 301 561 301 548 301C535 301 522 301 509 301C496 301 483 301 469.8 301C456.7 301 443.3 301 430.2 301C417 301 404 301 391 301C378 301 365 301 352 301C339 301 326 301 313 301C300 301 287 301 274 301C261 301 248 301 235 301C222 301 209 301 196 301C183 301 170 301 156.8 301C143.7 301 130.3 301 117.2 301C104 301 91 301 78 301C65 301 52 301 39 301C26 301 13 301 6.5 301L0 301Z" fill="#d65371"></path><path d="M0 264L6.5 264.5C13 265 26 266 39 265C52 264 65 261 78 262C91 263 104 268 117.2 271C130.3 274 143.7 275 156.8 275.5C170 276 183 276 196 274.2C209 272.3 222 268.7 235 265C248 261.3 261 257.7 274 256.7C287 255.7 300 257.3 313 261C326 264.7 339 270.3 352 272.7C365 275 378 274 391 270.2C404 266.3 417 259.7 430.2 260C443.3 260.3 456.7 267.7 469.8 269C483 270.3 496 265.7 509 263C522 260.3 535 259.7 548 261.3C561 263 574 267 587 267.5C600 268 613 265 626 264.5C639 264 652 266 665 266.7C678 267.3 691 266.7 704 268C717 269.3 730 272.7 743.2 272.2C756.3 271.7 769.7 267.3 782.8 266.2C796 265 809 267 822 267.8C835 268.7 848 268.3 861 269.3C874 270.3 887 272.7 893.5 273.8L900 275L900 301L893.5 301C887 301 874 301 861 301C848 301 835 301 822 301C809 301 796 301 782.8 301C769.7 301 756.3 301 743.2 301C730 301 717 301 704 301C691 301 678 301 665 301C652 301 639 301 626 301C613 301 600 301 587 301C574 301 561 301 548 301C535 301 522 301 509 301C496 301 483 301 469.8 301C456.7 301 443.3 301 430.2 301C417 301 404 301 391 301C378 301 365 301 352 301C339 301 326 301 313 301C300 301 287 301 274 301C261 301 248 301 235 301C222 301 209 301 196 301C183 301 170 301 156.8 301C143.7 301 130.3 301 117.2 301C104 301 91 301 78 301C65 301 52 301 39 301C26 301 13 301 6.5 301L0 301Z" fill="#ec5f6a"></path><path d="M0 272L6.5 271.2C13 270.3 26 268.7 39 268.7C52 268.7 65 270.3 78 272C91 273.7 104 275.3 117.2 277.2C130.3 279 143.7 281 156.8 280.5C170 280 183 277 196 275.8C209 274.7 222 275.3 235 276.7C248 278 261 280 274 281.5C287 283 300 284 313 283C326 282 339 279 352 278.5C365 278 378 280 391 279C404 278 417 274 430.2 273.8C443.3 273.7 456.7 277.3 469.8 277C483 276.7 496 272.3 509 271.7C522 271 535 274 548 275.2C561 276.3 574 275.7 587 275.8C600 276 613 277 626 276.8C639 276.7 652 275.3 665 275.8C678 276.3 691 278.7 704 277.5C717 276.3 730 271.7 743.2 272.2C756.3 272.7 769.7 278.3 782.8 279C796 279.7 809 275.3 822 274.8C835 274.3 848 277.7 861 277.2C874 276.7 887 272.3 893.5 270.2L900 268L900 301L893.5 301C887 301 874 301 861 301C848 301 835 301 822 301C809 301 796 301 782.8 301C769.7 301 756.3 301 743.2 301C730 301 717 301 704 301C691 301 678 301 665 301C652 301 639 301 626 301C613 301 600 301 587 301C574 301 561 301 548 301C535 301 522 301 509 301C496 301 483 301 469.8 301C456.7 301 443.3 301 430.2 301C417 301 404 301 391 301C378 301 365 301 352 301C339 301 326 301 313 301C300 301 287 301 274 301C261 301 248 301 235 301C222 301 209 301 196 301C183 301 170 301 156.8 301C143.7 301 130.3 301 117.2 301C104 301 91 301 78 301C65 301 52 301 39 301C26 301 13 301 6.5 301L0 301Z" fill="#ff6f61"></path></svg>