<svg id="visual" viewBox="0 0 900 300" width="900" height="300" xmlns="http://www.w3.org/2000/svg" xmlns:xlink="http://www.w3.org/1999/xlink" version="1.1"><path d="M809 300L845 300L845 287L800 287L800 274L809 274L809 261L791 261L791 248L836 248L836 235L809 235L809 222L818 222L818 209L809 209L809 196L836 196L836 183L827 183L827 170L854 170L854 157L836 157L836 143L818 143L818 130L854 130L854 117L818 117L818 104L863 104L863 91L827 91L827 78L809 78L809 65L827 65L827 52L836 52L836 39L827 39L827 26L800 26L800 13L836 13L836 0L900 0L900 13L900 13L900 26L900 26L900 39L900 39L900 52L900 52L900 65L900 65L900 78L900 78L900 91L900 91L900 104L900 104L900 117L900 117L900 130L900 130L900 143L900 143L900 157L900 157L900 170L900 170L900 183L900 183L900 196L900 196L900 209L900 209L900 222L900 222L900 235L900 235L900 248L900 248L900 261L900 261L900 274L900 274L900 287L900 287L900 300L900 300Z" fill="#009473"></path><path d="M737 300L800 300L800 287L692 287L692 274L773 274L773 261L701 261L701 248L737 248L737 235L755 235L755 222L710 222L710 209L746 209L746 196L791 196L791 183L746 183L746 170L710 170L710 157L782 157L782 143L773 143L773 130L764 130L764 117L755 117L755 104L791 104L791 91L719 91L719 78L692 78L692 65L773 65L773 52L800 52L800 39L764 39L764 26L764 26L764 13L737 13L737 0L837 0L837 13L801 13L801 26L828 26L828 39L837 39L837 52L828 52L828 65L810 65L810 78L828 78L828 91L864 91L864 104L819 104L819 117L855 117L855 130L819 130L819 143L837 143L837 157L855 157L855 170L828 170L828 183L837 183L837 196L810 196L810 209L819 209L819 222L810 222L810 235L837 235L837 248L792 248L792 261L810 261L810 274L801 274L801 287L846 287L846 300L810 300Z" fill="#007574"></path><path d="M683 300L764 300L764 287L629 287L629 274L710 274L710 261L674 261L674 248L701 248L701 235L701 235L701 222L683 222L683 209L719 209L719 196L755 196L755 183L710 183L710 170L665 170L665 157L737 157L737 143L710 143L710 130L692 130L692 117L719 117L719 104L719 104L719 91L656 91L656 78L665 78L665 65L728 65L728 52L755 52L755 39L728 39L728 26L728 26L728 13L665 13L665 0L738 0L738 13L765 13L765 26L765 26L765 39L801 39L801 52L774 52L774 65L693 65L693 78L720 78L720 91L792 91L792 104L756 104L756 117L765 117L765 130L774 130L774 143L783 143L783 157L711 157L711 170L747 170L747 183L792 183L792 196L747 196L747 209L711 209L711 222L756 222L756 235L738 235L738 248L702 248L702 261L774 261L774 274L693 274L693 287L801 287L801 300L738 300Z" fill="#005665"></path><path d="M629 300L692 300L692 287L575 287L575 274L665 274L665 261L647 261L647 248L638 248L638 235L656 235L656 222L629 222L629 209L665 209L665 196L692 196L692 183L683 183L683 170L620 170L620 157L683 157L683 143L638 143L638 130L665 130L665 117L692 117L692 104L665 104L665 91L611 91L611 78L629 78L629 65L710 65L710 52L692 52L692 39L683 39L683 26L692 26L692 13L629 13L629 0L666 0L666 13L729 13L729 26L729 26L729 39L756 39L756 52L729 52L729 65L666 65L666 78L657 78L657 91L720 91L720 104L720 104L720 117L693 117L693 130L711 130L711 143L738 143L738 157L666 157L666 170L711 170L711 183L756 183L756 196L720 196L720 209L684 209L684 222L702 222L702 235L702 235L702 248L675 248L675 261L711 261L711 274L630 274L630 287L765 287L765 300L684 300Z" fill="#01384b"></path><path d="M467 300L386 300L386 287L422 287L422 274L593 274L593 261L503 261L503 248L548 248L548 235L539 235L539 222L368 222L368 209L566 209L566 196L485 196L485 183L377 183L377 170L395 170L395 157L449 157L449 143L539 143L539 130L584 130L584 117L503 117L503 104L458 104L458 91L422 91L422 78L467 78L467 65L458 65L458 52L575 52L575 39L422 39L422 26L476 26L476 13L521 13L521 0L630 0L630 13L693 13L693 26L684 26L684 39L693 39L693 52L711 52L711 65L630 65L630 78L612 78L612 91L666 91L666 104L693 104L693 117L666 117L666 130L639 130L639 143L684 143L684 157L621 157L621 170L684 170L684 183L693 183L693 196L666 196L666 209L630 209L630 222L657 222L657 235L639 235L639 248L648 248L648 261L666 261L666 274L576 274L576 287L693 287L693 300L630 300Z" fill="#031c2e"></path><path d="M314 300L269 300L269 287L305 287L305 274L350 274L350 261L323 261L323 248L296 248L296 235L305 235L305 222L260 222L260 209L287 209L287 196L296 196L296 183L260 183L260 170L233 170L233 157L332 157L332 143L269 143L269 130L386 130L386 117L332 117L332 104L359 104L359 91L269 91L269 78L323 78L323 65L314 65L314 52L377 52L377 39L323 39L323 26L323 26L323 13L323 13L323 0L522 0L522 13L477 13L477 26L423 26L423 39L576 39L576 52L459 52L459 65L468 65L468 78L423 78L423 91L459 91L459 104L504 104L504 117L585 117L585 130L540 130L540 143L450 143L450 157L396 157L396 170L378 170L378 183L486 183L486 196L567 196L567 209L369 209L369 222L540 222L540 235L549 235L549 248L504 248L504 261L594 261L594 274L423 274L423 287L387 287L387 300L468 300Z" fill="#001122"></path><path d="M296 300L251 300L251 287L260 287L260 274L323 274L323 261L305 261L305 248L269 248L269 235L260 235L260 222L215 222L215 209L260 209L260 196L269 196L269 183L233 183L233 170L215 170L215 157L287 157L287 143L251 143L251 130L359 130L359 117L287 117L287 104L341 104L341 91L242 91L242 78L305 78L305 65L278 65L278 52L341 52L341 39L296 39L296 26L287 26L287 13L305 13L305 0L324 0L324 13L324 13L324 26L324 26L324 39L378 39L378 52L315 52L315 65L324 65L324 78L270 78L270 91L360 91L360 104L333 104L333 117L387 117L387 130L270 130L270 143L333 143L333 157L234 157L234 170L261 170L261 183L297 183L297 196L288 196L288 209L261 209L261 222L306 222L306 235L297 235L297 248L324 248L324 261L351 261L351 274L306 274L306 287L270 287L270 300L315 300Z" fill="#001122"></path><path d="M224 300L152 300L152 287L161 287L161 274L161 274L161 261L197 261L197 248L188 248L188 235L188 235L188 222L170 222L170 209L197 209L197 196L161 196L161 183L179 183L179 170L134 170L134 157L179 157L179 143L143 143L143 130L224 130L224 117L179 117L179 104L206 104L206 91L125 91L125 78L170 78L170 65L179 65L179 52L188 52L188 39L215 39L215 26L197 26L197 13L170 13L170 0L306 0L306 13L288 13L288 26L297 26L297 39L342 39L342 52L279 52L279 65L306 65L306 78L243 78L243 91L342 91L342 104L288 104L288 117L360 117L360 130L252 130L252 143L288 143L288 157L216 157L216 170L234 170L234 183L270 183L270 196L261 196L261 209L216 209L216 222L261 222L261 235L270 235L270 248L306 248L306 261L324 261L324 274L261 274L261 287L252 287L252 300L297 300Z" fill="#031c2e"></path><path d="M161 300L134 300L134 287L116 287L116 274L125 274L125 261L152 261L152 248L143 248L143 235L125 235L125 222L134 222L134 209L179 209L179 196L98 196L98 183L134 183L134 170L98 170L98 157L161 157L161 143L107 143L107 130L161 130L161 117L152 117L152 104L143 104L143 91L107 91L107 78L143 78L143 65L134 65L134 52L143 52L143 39L152 39L152 26L143 26L143 13L107 13L107 0L171 0L171 13L198 13L198 26L216 26L216 39L189 39L189 52L180 52L180 65L171 65L171 78L126 78L126 91L207 91L207 104L180 104L180 117L225 117L225 130L144 130L144 143L180 143L180 157L135 157L135 170L180 170L180 183L162 183L162 196L198 196L198 209L171 209L171 222L189 222L189 235L189 235L189 248L198 248L198 261L162 261L162 274L162 274L162 287L153 287L153 300L225 300Z" fill="#01384b"></path><path d="M125 300L98 300L98 287L89 287L89 274L107 274L107 261L98 261L98 248L98 248L98 235L107 235L107 222L80 222L80 209L143 209L143 196L53 196L53 183L80 183L80 170L80 170L80 157L107 157L107 143L80 143L80 130L134 130L134 117L116 117L116 104L98 104L98 91L53 91L53 78L89 78L89 65L80 65L80 52L98 52L98 39L134 39L134 26L116 26L116 13L53 13L53 0L108 0L108 13L144 13L144 26L153 26L153 39L144 39L144 52L135 52L135 65L144 65L144 78L108 78L108 91L144 91L144 104L153 104L153 117L162 117L162 130L108 130L108 143L162 143L162 157L99 157L99 170L135 170L135 183L99 183L99 196L180 196L180 209L135 209L135 222L126 222L126 235L144 235L144 248L153 248L153 261L126 261L126 274L117 274L117 287L135 287L135 300L162 300Z" fill="#005665"></path><path d="M80 300L71 300L71 287L71 287L71 274L89 274L89 261L44 261L44 248L71 248L71 235L80 235L80 222L26 222L26 209L89 209L89 196L35 196L35 183L35 183L35 170L62 170L62 157L89 157L89 143L44 143L44 130L80 130L80 117L80 117L80 104L44 104L44 91L35 91L35 78L35 78L35 65L53 65L53 52L44 52L44 39L89 39L89 26L62 26L62 13L35 13L35 0L54 0L54 13L117 13L117 26L135 26L135 39L99 39L99 52L81 52L81 65L90 65L90 78L54 78L54 91L99 91L99 104L117 104L117 117L135 117L135 130L81 130L81 143L108 143L108 157L81 157L81 170L81 170L81 183L54 183L54 196L144 196L144 209L81 209L81 222L108 222L108 235L99 235L99 248L99 248L99 261L108 261L108 274L90 274L90 287L99 287L99 300L126 300Z" fill="#007574"></path><path d="M0 300L0 300L0 287L0 287L0 274L0 274L0 261L0 261L0 248L0 248L0 235L0 235L0 222L0 222L0 209L0 209L0 196L0 196L0 183L0 183L0 170L0 170L0 157L0 157L0 143L0 143L0 130L0 130L0 117L0 117L0 104L0 104L0 91L0 91L0 78L0 78L0 65L0 65L0 52L0 52L0 39L0 39L0 26L0 26L0 13L0 13L0 0L36 0L36 13L63 13L63 26L90 26L90 39L45 39L45 52L54 52L54 65L36 65L36 78L36 78L36 91L45 91L45 104L81 104L81 117L81 117L81 130L45 130L45 143L90 143L90 157L63 157L63 170L36 170L36 183L36 183L36 196L90 196L90 209L27 209L27 222L81 222L81 235L72 235L72 248L45 248L45 261L90 261L90 274L72 274L72 287L72 287L72 300L81 300Z" fill="#009473"></path></svg>